<svg xmlns="http://www.w3.org/2000/svg" viewBox="0 0 858.78 753.43"><g id="Layer_2" data-name="Layer 2"><g id="Layer_1-2" data-name="Layer 1"><path d="M664.66,542.08c-57.41,99.58-165,166.75-287.95,166.75-183.13,0-332.12-149-332.12-332.12s149-332.12,332.12-332.12c123,0,230.54,67.18,288,166.76h50.62a376.41,376.41,0,1,0,0,330.73Z" fill="#115096"/><path d="M308.34,281.58a7,7,0,0,1,.73.44,134.18,134.18,0,0,0,25.05,15.84q8.33,4.23,17,7.61c.56.22,1.28.23,1.66.95-15.91,6.28-31.11,13.82-44.49,24.68-.23-.68.15-1.17.33-1.68.84-2.41,1.72-4.79,2.58-7.18a12.23,12.23,0,0,0,.44-1.42.43.43,0,0,0-.44-.56c-.56,0-1.13,0-1.69,0H254.37a39.49,39.49,0,0,0-10.5,1.23,25.84,25.84,0,0,0-2.62.85c-7.16,2.77-11.44,7.93-12.36,15.57-1,7.9,1.78,14.31,8.39,18.91a22.56,22.56,0,0,0,4.69,2.46,32,32,0,0,0,10.76,2.11c9.27.27,18.53.18,27.8.1,3.46,0,6.93-.08,10.39,0a47.42,47.42,0,0,1,18.34,3.92c15,6.68,24.16,18.09,27.33,34.15,4.6,23.23-8.39,43.51-26.29,52a46.6,46.6,0,0,1-19,4.51c-19.66.5-39.32.3-59,.26-7.71,0-15.42,0-23.12,0a20,20,0,0,1-4.23-.28,4.46,4.46,0,0,1-3.71-3.61,18.52,18.52,0,0,1-.44-3.15c-.13-2.54-.18-5.09-.29-7.63a40.59,40.59,0,0,1,.26-6.14,11.24,11.24,0,0,1,.45-2.07,5.55,5.55,0,0,1,3.66-3.82,15.16,15.16,0,0,1,3.94-.8c3-.24,5.93-.32,8.9-.32l51.14,0q9.76,0,19.52-.05a24.2,24.2,0,0,0,10.1-2.1c7.34-3.36,11.1-9.11,11.38-17.17a20.56,20.56,0,0,0-1.09-7.51c-2.19-6.38-6.71-10.31-13-12.3a27.93,27.93,0,0,0-8.17-1.12c-5.09-.05-10.18-.06-15.28-.07h-22.7a48.52,48.52,0,0,1-22.5-5.28c-13.05-6.74-21.16-17.37-24.23-31.74a49,49,0,0,1,2.35-29c5.56-13.92,15.77-22.83,30.09-27.08a49,49,0,0,1,13.82-1.94q21.12-.06,42.22,0c6.16,0,12.31.08,18.46.12.57,0,1.14,0,1.7,0a.53.53,0,0,0,.55-.69c-.13-.48-.29-.94-.45-1.41-1-2.66-1.94-5.31-2.88-8C308.51,282.75,308.13,282.25,308.34,281.58Z" fill="#115097"/><path d="M430.91,371a1.75,1.75,0,0,0,.77-.92c8.42-16.73,17.08-33.35,25.31-50.18,2.33-4.76,4.59-9.56,6.86-14.35a41.26,41.26,0,0,1,3.07-5.56,15.18,15.18,0,0,1,12.41-7.05,73.39,73.39,0,0,1,8.9.29,41.9,41.9,0,0,1,6.12.63,14.2,14.2,0,0,1,1.84.48,2.61,2.61,0,0,1,1.87,3.33,14,14,0,0,1-.79,2.63q-1,2.35-2.12,4.63Q484.1,327,473,349.1l-35.88,71.44c-.76,1.52-1.45,3.07-2.18,4.6a11.05,11.05,0,0,1-3.9,4.66c-.84.53-1,.52-1.46-.33-1.32-2.59-2.62-5.18-3.92-7.77L392.9,356.76c-.29-.56-.6-1.11-.89-1.64-.58-.05-.79.36-1.05.68a7.57,7.57,0,0,0-1.77,5.09c.06,1.77.23,3.54.21,5.3q-.24,34.07-.09,68.13c0,4.38.12,8.77.2,13.15a20.68,20.68,0,0,1-.33,4,5.25,5.25,0,0,1-4.43,4.54,13.41,13.41,0,0,1-2.52.35,101.12,101.12,0,0,1-13.14-.3,12.44,12.44,0,0,1-3.08-.72,5.36,5.36,0,0,1-3.21-3.19,14,14,0,0,1-.81-3.5,78.81,78.81,0,0,1-.34-8.69q0-35.87,0-71.74,0-32.26-.15-64.52c0-1.06,0-2.12,0-3.18a10.33,10.33,0,0,1,.46-2.71,5.42,5.42,0,0,1,3-3.61,11,11,0,0,1,2.4-.82,39.49,39.49,0,0,1,15-.41,21,21,0,0,1,12.59,7.27,39,39,0,0,1,6.07,10.16c1.06,2.47,2.08,5,3.15,7.42,4.57,10.51,9.83,20.68,15.09,30.85q5.42,10.45,10.81,20.91Z" fill="#115096"/><path d="M626,293.23c10,0,20-.12,29.92,0a55.86,55.86,0,0,1,37.83,14.82,48.25,48.25,0,0,1,15.35,26.53,60.44,60.44,0,0,1,.06,25.89,46.56,46.56,0,0,1-18,27.44,65.81,65.81,0,0,1-15.74,8.66c-1,.39-2,.82-2.93,1.25a5.18,5.18,0,0,0-1.71,1.23,3,3,0,0,0-.8,2.74,12.61,12.61,0,0,0,1.28,3.35c3.6,7.05,7.22,14.09,10.77,21.17s7,14,10.72,20.94a20,20,0,0,1,1.8,4.29,2.92,2.92,0,0,1-2.17,3.94,26.23,26.23,0,0,1-3.51.8,48.86,48.86,0,0,1-9.51.64,21.63,21.63,0,0,1-17.69-9.33,40.52,40.52,0,0,1-4.68-8.54c-5.7-14-12.49-27.54-19.55-40.92-2.54-4.81-5.12-9.6-7.66-14.42-.59-1.12-1.13-2.27-1.61-3.45a9.62,9.62,0,0,1-.63-2.23,2.52,2.52,0,0,1,1.81-3,8.77,8.77,0,0,1,2.92-.48c1.48,0,3,0,4.45.12a152.5,152.5,0,0,0,19.71-.28,32.37,32.37,0,0,0,11.47-2.81c8.7-4,13.45-10.9,14.72-20.31a27,27,0,0,0-.71-11.35c-2.5-8.62-8.16-14.35-16.43-17.62a30.61,30.61,0,0,0-10.35-2c-9.55-.27-19.09-.71-28.64-.48-4.31.11-8.62.29-12.92.65a31.83,31.83,0,0,1-8.66-.27,16.08,16.08,0,0,1-9.84-5.77,24.51,24.51,0,0,1-3.64-6.2c-1.2-2.94-2.3-5.93-3.42-8.91a10.53,10.53,0,0,1-.71-3.09,2.17,2.17,0,0,1,1.59-2.44,6.14,6.14,0,0,1,2.07-.4c2.19-.08,4.38-.21,6.57-.22q14.22,0,28.43,0Z" fill="#115097"/><path d="M792.32,292.92H843c2.61,0,5.23-.11,7.84-.18a18.75,18.75,0,0,1,3.59.26,4.48,4.48,0,0,1,4,3.78,11.32,11.32,0,0,1,.29,2.31c0,3.75,0,7.5-.11,11.24a17.55,17.55,0,0,1-.75,4.6,5.69,5.69,0,0,1-4,4,21.49,21.49,0,0,1-5.86.83c-4.17.05-8.34.05-12.51.1-2.69,0-5.38.11-8.06.19-4.67.13-9.33-.1-14-.3a25.57,25.57,0,0,0-3.39,0,5.36,5.36,0,0,0-5.3,4.61,19.37,19.37,0,0,0-.38,4.43c0,7.35.05,14.71.05,22.07q0,26.52,0,53,0,12.84.08,25.68c0,5.37.12,10.75.19,16.12a22.9,22.9,0,0,1-.35,4.22c-.53,3.15-2,4.7-5.17,5.38a8.74,8.74,0,0,1-1.68.25,86.94,86.94,0,0,1-14-.75c-.35-.05-.69-.12-1-.2a5.47,5.47,0,0,1-4.46-4.79,30.72,30.72,0,0,1-.41-3.57c-.08-2.12-.09-4.25-.09-6.37q0-38.83,0-77.66c0-10.54.08-21.08.12-31.62,0-1.2,0-2.4,0-3.6a11.9,11.9,0,0,0-.31-2.52c-.7-2.86-2.17-4.25-5.06-4.65a16.88,16.88,0,0,0-2.75-.12c-11.25.34-22.49.12-33.74.13-2.12,0-4.24,0-6.36,0a18.09,18.09,0,0,1-2.33-.1,4,4,0,0,1-3.8-3.41,10.52,10.52,0,0,1-.35-2.08c-.16-3.68-.28-7.35-.42-11a23,23,0,0,1,.36-4.22,6,6,0,0,1,4.94-5.4,22.62,22.62,0,0,1,4.41-.61c2.26-.05,4.52-.11,6.79-.11h53.25Z" fill="#144f96"/><path d="M531.86,292.45c2.72.34,3.23,2.11,4,3.58,16,32,31.95,64,48.13,95.85,3.16,6.23,1,7.35-5,7.62-22.21,1-22.21,1.17-32.11-18.88-3.31-6.72-6.54-13.47-9.94-20.14-1-2-1.46-5.16-4.33-5-2.71.12-3.23,3.15-4.26,5.2-14.24,28.28-28.37,56.61-42.75,84.82-1.87,3.67-2.24,9.41-7.93,9.59-8.14.27-16.58,1-24.36-.77-4.64-1.07-.11-5.79,1.14-8.32,16.73-33.89,33.67-67.68,50.56-101.49q12.11-24.21,24.26-48.4A25.24,25.24,0,0,1,531.86,292.45Z" fill="#f6a827"/><path d="M595.61,453.25c-4.17-1-10.5,2.64-13.75-2.34a133.86,133.86,0,0,1-11.37-22.75c-1.42-3.46,2.44-3.19,4.63-3.23,6.14-.12,12.29.19,18.41-.13,4.38-.23,7.08,1.34,8.67,5.38,1,2.52,2.34,4.92,3.55,7.35C613.61,453.26,613.61,453.25,595.61,453.25Z" fill="#f7a828"/></g></g></svg>