<svg xmlns="http://www.w3.org/2000/svg" viewBox="0 0 1405.84 1233.38"><g id="Layer_2" data-name="Layer 2"><g id="Layer_1-2" data-name="Layer 1"><path d="M1088.07,887.4c-94,163-270.08,273-471.38,273C316.9,1160.38,73,916.48,73,616.69S316.9,73,616.69,73c201.3,0,377.4,110,471.38,273h82.87a616.21,616.21,0,1,0,0,541.42Z" fill="#fff"/><path d="M504.77,461a10.12,10.12,0,0,1,1.19.72c12.58,10.37,26.52,18.58,41,25.93q13.63,6.92,27.88,12.45c.92.36,2.1.38,2.72,1.56-26,10.27-50.93,22.62-72.83,40.41-.38-1.12.25-1.93.54-2.76,1.37-3.94,2.82-7.84,4.23-11.76a20.71,20.71,0,0,0,.71-2.32.7.7,0,0,0-.71-.91c-.93,0-1.85-.07-2.78-.07l-90.32,0a65,65,0,0,0-17.18,2,43,43,0,0,0-4.29,1.4c-11.72,4.54-18.73,13-20.24,25.5-1.56,12.93,2.92,23.41,13.75,31a36.64,36.64,0,0,0,7.67,4,52.32,52.32,0,0,0,17.62,3.45c15.17.45,30.33.31,45.5.18,5.67-.05,11.35-.14,17,0a77.52,77.52,0,0,1,30,6.43c24.48,10.93,39.54,29.61,44.74,55.9,7.52,38-13.74,71.22-43.05,85.19a76.14,76.14,0,0,1-31.16,7.38c-32.19.83-64.37.5-96.56.42-12.62,0-25.24,0-37.86,0a32.76,32.76,0,0,1-6.92-.47,7.31,7.31,0,0,1-6.08-5.91,29.71,29.71,0,0,1-.71-5.14c-.22-4.16-.3-8.33-.48-12.5a67.5,67.5,0,0,1,.43-10,18.61,18.61,0,0,1,.73-3.39,9.07,9.07,0,0,1,6-6.25,25.35,25.35,0,0,1,6.44-1.32c4.85-.38,9.71-.52,14.58-.52q41.85,0,83.71,0,16,0,32-.08A39.66,39.66,0,0,0,488.57,698c12-5.49,18.18-14.91,18.63-28.1a34,34,0,0,0-1.78-12.3c-3.59-10.44-11-16.88-21.35-20.13a45.88,45.88,0,0,0-13.38-1.83c-8.33-.08-16.67-.1-25-.12q-18.58,0-37.17,0a79.5,79.5,0,0,1-36.83-8.64c-21.37-11-34.64-28.44-39.67-51.95a80.35,80.35,0,0,1,3.85-47.42c9.11-22.78,25.82-37.38,49.26-44.33A80.53,80.53,0,0,1,407.75,480q34.56-.09,69.12,0c10.08,0,20.15.14,30.22.2.93,0,1.86,0,2.78,0a.87.87,0,0,0,.9-1.13c-.21-.78-.47-1.55-.74-2.31-1.57-4.35-3.17-8.69-4.7-13.06C505,462.86,504.42,462.06,504.77,461Z" fill="#fff"/><path d="M705.41,607.33a2.88,2.88,0,0,0,1.26-1.52c13.8-27.39,28-54.59,41.44-82.13,3.82-7.8,7.5-15.66,11.23-23.5a67.85,67.85,0,0,1,5-9.11,24.89,24.89,0,0,1,20.32-11.53,118,118,0,0,1,14.57.47,67.27,67.27,0,0,1,10,1,23.37,23.37,0,0,1,3,.8c2.64,1,3.62,2.71,3.08,5.44a23.8,23.8,0,0,1-1.3,4.31q-1.6,3.84-3.47,7.58-18.11,36.16-36.25,72.31Q745,630,715.6,688.44c-1.25,2.48-2.38,5-3.58,7.53a17.92,17.92,0,0,1-6.38,7.62c-1.37.88-1.68.85-2.39-.54-2.16-4.23-4.28-8.47-6.42-12.71L643.19,584c-.47-.92-1-1.82-1.46-2.69-.94-.08-1.29.59-1.71,1.11a12.36,12.36,0,0,0-2.9,8.35c.09,2.89.37,5.78.34,8.66q-.4,55.77-.14,111.53c0,7.18.19,14.36.32,21.54a32,32,0,0,1-.55,6.56,8.59,8.59,0,0,1-7.24,7.44,23.08,23.08,0,0,1-4.12.57c-7.18.09-14.36.34-21.52-.5a20.66,20.66,0,0,1-5-1.18,8.75,8.75,0,0,1-5.25-5.22,22.53,22.53,0,0,1-1.33-5.73,130,130,0,0,1-.56-14.23q0-58.71.06-117.43,0-52.81-.23-105.63c0-1.73.06-3.47.07-5.21a16.73,16.73,0,0,1,.76-4.44,8.89,8.89,0,0,1,5-5.9,17.53,17.53,0,0,1,3.93-1.34,64.28,64.28,0,0,1,24.49-.67,34.4,34.4,0,0,1,20.62,11.9,63.34,63.34,0,0,1,9.93,16.63c1.74,4,3.4,8.11,5.16,12.15,7.49,17.2,16.09,33.85,24.71,50.5q8.87,17.12,17.7,34.24C704.58,605.75,705,606.46,705.41,607.33Z" fill="#fff"/><path d="M1024.77,480c16.32,0,32.65-.19,49,.05,23.62.35,44.4,8.35,61.93,24.26,13,11.76,21.61,26.17,25.14,43.42,2.88,14.1,3.32,28.27.1,42.39-4.25,18.59-14.27,33.45-29.41,44.93a108.46,108.46,0,0,1-25.78,14.17c-1.61.64-3.19,1.34-4.78,2a8.47,8.47,0,0,0-2.8,2,4.94,4.94,0,0,0-1.32,4.48,21.26,21.26,0,0,0,2.1,5.49c5.89,11.54,11.82,23.06,17.63,34.64s11.48,23,17.55,34.3a32.09,32.09,0,0,1,2.94,7c.94,3.55-.68,5.54-3.55,6.44a43,43,0,0,1-5.74,1.31,78,78,0,0,1-15.56,1c-12.14-.4-21.84-5.39-29-15.27a66.34,66.34,0,0,1-7.65-14c-9.33-23-20.45-45.08-32-67-4.16-7.88-8.37-15.73-12.53-23.61-1-1.84-1.85-3.73-2.64-5.65a15.93,15.93,0,0,1-1-3.66,4.12,4.12,0,0,1,3-4.87,14.13,14.13,0,0,1,4.78-.78c2.43,0,4.87,0,7.29.19a246.45,246.45,0,0,0,32.27-.47,52.77,52.77,0,0,0,18.78-4.6c14.23-6.58,22-17.83,24.09-33.24a44.46,44.46,0,0,0-1.16-18.58c-4.1-14.11-13.37-23.49-26.89-28.84a49.54,49.54,0,0,0-17-3.3c-15.62-.45-31.24-1.18-46.87-.79-7.06.17-14.11.47-21.15,1a51.91,51.91,0,0,1-14.19-.43,26.38,26.38,0,0,1-16.11-9.46,39.66,39.66,0,0,1-6-10.14c-2-4.82-3.77-9.7-5.59-14.58a17.19,17.19,0,0,1-1.17-5.06c-.12-2.11.65-3.21,2.6-4a9.86,9.86,0,0,1,3.39-.65c3.59-.14,7.18-.35,10.76-.36,15.51,0,31,0,46.54,0Z" fill="#fff"/><path d="M1297.05,479.51q41.51,0,83,0c4.29,0,8.57-.17,12.85-.29a31.12,31.12,0,0,1,5.87.43,7.34,7.34,0,0,1,6.6,6.19,19.23,19.23,0,0,1,.46,3.77c0,6.14,0,12.28-.18,18.41a28,28,0,0,1-1.22,7.52,9.3,9.3,0,0,1-6.56,6.58,34.56,34.56,0,0,1-9.59,1.36c-6.83.08-13.66.08-20.49.17-4.4.05-8.8.18-13.19.3-7.65.21-15.28-.16-22.91-.48a44.68,44.68,0,0,0-5.55,0c-4.88.4-7.57,2.84-8.68,7.56a30.43,30.43,0,0,0-.62,7.25q0,18.06.08,36.12,0,43.43,0,86.84,0,21,.14,42c.05,8.8.19,17.6.31,26.4a37.27,37.27,0,0,1-.58,6.91c-.87,5.14-3.33,7.69-8.46,8.8a15.25,15.25,0,0,1-2.74.41,143.25,143.25,0,0,1-22.86-1.23c-.57-.08-1.14-.19-1.7-.32a9,9,0,0,1-7.31-7.84,48.2,48.2,0,0,1-.66-5.86c-.14-3.47-.16-6.94-.16-10.42q0-63.57,0-127.13c0-17.25.13-34.51.2-51.76,0-2,0-3.94,0-5.9a18.67,18.67,0,0,0-.51-4.13c-1.13-4.67-3.54-7-8.28-7.61a27.15,27.15,0,0,0-4.51-.19c-18.4.55-36.81.2-55.22.22-3.47,0-6.94.06-10.42.06a32.28,32.28,0,0,1-3.81-.16c-3.47-.42-5.39-2.15-6.22-5.58a17.45,17.45,0,0,1-.57-3.42c-.27-6-.47-12-.69-18a36.38,36.38,0,0,1,.6-6.91c.71-4.73,3.36-7.77,8.08-8.84a35.76,35.76,0,0,1,7.21-1c3.71-.08,7.41-.19,11.11-.19h87.18Z" fill="#fff"/><path d="M870.68,478.76c4.45.55,5.28,3.44,6.49,5.86,26.24,52.31,52.31,104.71,78.78,156.9,5.18,10.21,1.68,12-8.14,12.47-36.36,1.66-36.35,1.92-52.56-30.91-5.42-11-10.72-22-16.29-33-1.67-3.29-2.38-8.45-7.08-8.25-4.43.19-5.28,5.16-7,8.51-23.32,46.29-46.45,92.68-70,138.86-3.06,6-3.67,15.39-13,15.69-13.33.44-27.15,1.66-39.89-1.26-7.59-1.75-.17-9.47,1.88-13.63,27.38-55.48,55.11-110.79,82.76-166.13q19.8-39.64,39.71-79.24C867.57,482.38,869.44,480.44,870.68,478.76Z" fill="#f6a827"/><path d="M975,742c-6.83-1.67-17.2,4.31-22.52-3.83-7.55-11.56-13.37-24.41-18.61-37.24-2.32-5.68,4-5.24,7.58-5.3,10-.18,20.12.31,30.14-.21,7.16-.37,11.59,2.19,14.18,8.8,1.63,4.14,3.84,8,5.83,12C1004.49,742,1004.5,742,975,742Z" fill="#f7a828"/></g></g></svg>