<svg xmlns="http://www.w3.org/2000/svg" xmlns:xlink="http://www.w3.org/1999/xlink" viewBox="0 0 328.8 380.1"><defs><linearGradient id="linear-gradient" x1="168.27" y1="898" x2="247.29" y2="1034.17" gradientTransform="translate(0 -700.11)" gradientUnits="userSpaceOnUse"><stop offset="0" stop-color="#9b90c5"/><stop offset="0.11" stop-color="#7f71b2"/><stop offset="0.23" stop-color="#6857a2"/><stop offset="0.37" stop-color="#554395"/><stop offset="0.52" stop-color="#48348c"/><stop offset="0.7" stop-color="#402c87"/><stop offset="1" stop-color="#3e2985"/></linearGradient></defs><g id="Layer_2" data-name="Layer 2"><g id="Layer_1-2" data-name="Layer 1"><g id="Layer_2-2" data-name="Layer 2"><g id="Layer_1-2-2" data-name="Layer 1-2"><polygon points="0 94.3 0 285 164.2 380.1 164.2 189 0 94.3" fill="#fab63b"/><polygon points="164.2 189 328.8 285 328.8 94.3 164.2 189" fill="#144f98"/><path d="M87.7,144.9l21.5,12.4Z" fill="none"/><path d="M81.2,141.2,59.8,128.8Z" fill="none"/><rect x="84.4" y="139.3" height="7.4" fill="#be1622"/><line x1="80.6" y1="140.8" x2="87.1" y2="144.5" fill="none"/><path d="M174.9,195.3l143.2,83.5a7.17,7.17,0,0,1,2.6,9.8,6.51,6.51,0,0,1-2.6,2.6L174.8,374a7.19,7.19,0,0,1-9.8-2.6,7.49,7.49,0,0,1-1-3.6V201.4a7.13,7.13,0,0,1,7.1-7.1A6.74,6.74,0,0,1,174.9,195.3Z" fill="url(#linear-gradient)"/><polygon points="164.2 189 328.8 285 164.2 380.1 164.2 189" fill="#13457c"/><polygon points="57.3 127.4 106.7 155.9 101.3 343.7 53.2 315.8 57.3 127.4" fill="#f9f5f4"/><rect x="64.45" y="263.4" width="28.3" height="6.5" transform="translate(-189.7 339.41) rotate(-88.75)" fill="#fab63b"/><polygon points="74.4 309 74 327.9 80.4 331.6 80.9 309.2 74.4 309" fill="#fab63b"/><rect x="65.77" y="206.68" width="28.3" height="6.5" transform="translate(-131.72 285.22) rotate(-88.74)" fill="#fab63b"/><polygon points="84.1 167.5 84.6 143.1 78.2 139.4 77.6 167.4 84.1 167.5" fill="#fab63b"/><polygon points="164.2 189 107.5 156.3 273.1 62.4 328.8 94.3 164.2 189" fill="#ef7a23"/><polygon points="0 94.3 56.5 126.9 221.4 32.7 164.2 0 0 94.3" fill="#f49733"/><polygon points="0 94.3 57.3 127.4 222.2 33.2 164.2 0 0 94.3" fill="#f49733"/><polygon points="328.8 94.3 164.2 189 106.7 155.9 272.2 61.9 328.8 94.3" fill="#ef7a23"/><polygon points="222.2 33.2 272.2 61.9 106.7 155.9 57.3 127.4 222.2 33.2" fill="#fed38a"/><polygon points="226.1 62.2 249.5 48.9 243 45.1 222.9 56.6 226.1 62.2" fill="#f49733"/><polygon points="99.9 126.9 78.2 139.4 84.6 143.1 103.1 132.6 99.9 126.9" fill="#f49733"/><rect x="173.42" y="77.29" width="28.4" height="6.5" transform="translate(-15.23 103.76) rotate(-29.76)" fill="#f49733"/><rect x="124.2" y="105.39" width="28.4" height="6.5" transform="translate(-35.67 83.03) rotate(-29.76)" fill="#f49733"/></g></g></g></g></svg>