<svg xmlns="http://www.w3.org/2000/svg" xmlns:xlink="http://www.w3.org/1999/xlink" viewBox="0 0 1645.2 408.84"><defs><linearGradient id="linear-gradient" x1="856.12" y1="226.57" x2="935.14" y2="362.75" gradientUnits="userSpaceOnUse"><stop offset="0" stop-color="#9b90c5"/><stop offset="0.11" stop-color="#7f71b2"/><stop offset="0.23" stop-color="#6857a2"/><stop offset="0.37" stop-color="#554395"/><stop offset="0.52" stop-color="#48348c"/><stop offset="0.7" stop-color="#402c87"/><stop offset="1" stop-color="#3e2985"/></linearGradient></defs><g id="Layer_2" data-name="Layer 2"><g id="Layer_1-2" data-name="Layer 1"><path d="M639.93,26.86c-23.82-1.53-34.5,7.55-43.95,27.88-22.62,48.66-47.73,96.16-74.56,149.54-23.93-47.84-48.12-89.93-66.27-134.49C441.4,36,422.73,22.27,385.9,26.53c-18.36,2.12-21.81,6.76-21.69,23.59.71,101.09.35,202.19.35,303.28,0,43.81,0,43.16,43.33,43.1,15,0,19.64-4.5,19.47-19.5-.72-62.32-.42-124.66-.13-187,0-6.93-3.17-14.9,5.65-23.39,29.19,57.84,57.77,114.44,86.36,171.08,9.43-5.23,10.93-12.39,13.93-18.35Q597.55,191.46,661.65,63.43C679.63,27.57,679.47,29.4,639.93,26.86Z" fill="#144f98"/><path d="M1185.46,27.57c-22-.1-44,0-66.08,0h-61.53c-32.53,0-30.67-.7-19.09,29.71,9.59,25.17,23.9,34.09,50.66,31.92,31.7-2.56,63.79-1.46,95.65-.35,35.83,1.24,61.73,26.83,62.27,59.36.6,35.9-22.31,60.29-60.26,63a398.94,398.94,0,0,1-47.79.49c-16.63-.8-21.9,2-12.62,19.42,21.65,40.7,43.87,81.41,61.19,124,13.4,33,32.13,46.42,67.84,41.81,17.89-2.3,23.19-3.78,13.65-21.47-16.85-31.28-31.76-63.59-48.44-95-6-11.19-2.67-14.65,7.93-18.71,62.22-23.76,89.79-73,78.19-138.07C1297.3,69.16,1245.11,27.84,1185.46,27.57Z" fill="#144f98"/><path d="M1627.3,26.49c-44.83.85-89.69.32-134.54.32H1381c-45.87,0-45.46,0-43.08,47,.56,11,3.86,14.36,14.58,14.15,29.63-.56,59.32.7,88.92-.54,16.11-.67,20.51,4.44,20.36,20.4-.76,82.84-.35,165.69-.35,248.54,0,38,0,36.79,38.13,38.4,19.76.83,23.45-5.79,23.24-24.15-1-87.39-.14-174.81-.73-262.21-.1-15.27,3.24-22.2,20.1-21,19.66,1.44,39.5.33,59.26.33,44.28,0,43.57,0,43.76-43.69C1645.26,29.68,1641.1,26.23,1627.3,26.49Z" fill="#144f98"/><polygon points="687.74 123.05 687.74 313.71 851.93 408.84 851.93 217.76 687.74 123.05" fill="#fab63b"/><polygon points="851.93 217.76 1016.54 313.71 1016.54 123.05 851.93 217.76" fill="#144f98"/><polygon points="775.41 173.63 796.91 186.01 775.41 173.63 775.41 173.63" fill="none"/><polygon points="768.96 169.91 747.53 157.56 768.96 169.91 768.96 169.91" fill="none"/><rect x="772.19" y="168.04" height="7.45" transform="translate(237.85 755.08) rotate(-60.05)" fill="#be1622"/><line x1="768.31" y1="169.53" x2="774.81" y2="173.28" fill="none"/><path d="M862.66,224l143.25,83.5a7.14,7.14,0,0,1,0,12.35L862.64,402.65a7.14,7.14,0,0,1-10.71-6.18V230.19A7.13,7.13,0,0,1,862.66,224Z" fill="url(#linear-gradient)"/><polygon points="851.93 217.76 1016.54 313.71 851.93 408.84 851.93 217.76" fill="#13457c"/><polygon points="745.07 156.16 794.46 184.62 789.07 372.47 740.93 344.58 745.07 156.16" fill="#f9f5f4"/><rect x="752.18" y="292.1" width="28.35" height="6.48" transform="translate(454.34 1055.06) rotate(-88.75)" fill="#fab63b"/><polygon points="762.19 337.78 761.77 356.65 768.17 360.36 768.67 337.92 762.19 337.78" fill="#fab63b"/><rect x="753.43" y="235.42" width="28.35" height="6.48" transform="translate(512.13 1000.83) rotate(-88.74)" fill="#fab63b"/><polygon points="771.82 196.25 772.36 171.88 765.9 168.17 765.34 196.11 771.82 196.25" fill="#fab63b"/><polygon points="851.93 217.76 795.25 185.1 960.79 91.12 1016.54 123.05 851.93 217.76" fill="#ef7a23"/><polygon points="687.74 123.05 744.27 155.69 909.09 61.5 851.93 28.75 687.74 123.05" fill="#f49733"/><polygon points="687.74 123.05 745.07 156.16 909.89 61.97 851.93 28.75 687.74 123.05" fill="#f49733"/><polygon points="1016.54 123.05 851.93 217.76 794.46 184.62 959.97 90.66 1016.54 123.05" fill="#ef7a23"/><polygon points="909.89 61.97 959.97 90.66 794.46 184.62 745.07 156.16 909.89 61.97" fill="#fed38a"/><polygon points="913.87 90.99 937.24 77.63 930.71 73.9 910.65 85.36 913.87 90.99" fill="#f49733"/><polygon points="787.6 155.71 765.9 168.17 772.36 171.88 790.82 161.33 787.6 155.71" fill="#f49733"/><rect x="861.17" y="106.04" width="28.35" height="6.48" transform="translate(61.19 448.86) rotate(-29.76)" fill="#f49733"/><rect x="811.95" y="134.18" width="28.35" height="6.48" transform="translate(40.73 428.14) rotate(-29.76)" fill="#f49733"/><path d="M309.85,287.69c.8,56.95-45.73,106.72-104.11,108.11-63,1.5-126.13.11-189.2.55-11.93.08-15.38-4.08-15.88-15.83-2-46.88-2.4-46.86,43.66-46.86,50.91,0,101.82.1,152.73,0,29.8-.08,49.8-17.65,50.29-43.69.53-28-19-47.06-49.25-47.39-28.87-.31-57.75.07-86.63-.1-62.32-.36-108.59-46-108.63-107.09C2.79,73.33,48,28,110.48,27.58c28.88-.17,57.75,0,86.63,0,18.62,0,37.25.25,55.87.23L242.93,0c26.21,22.85,68.49,44.42,102.57,57.05-34.08,12.65-76.36,34.22-102.57,57.08l9.24-25.56c-44.29,0-88.56-.13-132.84.07-33.9.14-54.31,16.58-55.55,44.06s20.18,47.67,54,48.92c28.08,1,56.22.15,84.34.26C262.69,182.11,309,227.61,309.85,287.69Z" fill="#144f98"/><line x1="294.76" y1="57.05" x2="345.5" y2="57.05" fill="#144f98"/></g></g></svg>