<svg xmlns="http://www.w3.org/2000/svg" viewBox="0 0 1645.2 407.61"><g id="Layer_2" data-name="Layer 2"><g id="Layer_1-2" data-name="Layer 1"><path d="M639.93,26.87c-23.82-1.53-34.5,7.54-43.95,27.87-22.62,48.66-47.73,96.16-74.56,149.54-23.93-47.84-48.12-89.93-66.27-134.49C441.4,36,422.73,22.27,385.9,26.53c-18.36,2.12-21.81,6.76-21.69,23.59.71,101.09.35,202.19.35,303.29,0,43.8,0,43.16,43.33,43.09,15,0,19.64-4.49,19.47-19.5-.72-62.32-.42-124.66-.13-187,0-6.94-3.17-14.91,5.65-23.4,29.19,57.84,57.77,114.45,86.36,171.08,9.43-5.23,10.93-12.39,13.93-18.35Q597.55,191.47,661.65,63.43C679.63,27.57,679.47,29.4,639.93,26.87Z" fill="#fff"/><path d="M1185.46,27.57c-22-.1-44,0-66.08,0h-61.53c-32.53,0-30.67-.71-19.09,29.7,9.59,25.17,23.9,34.1,50.66,31.93,31.7-2.57,63.79-1.47,95.65-.36,35.83,1.24,61.73,26.83,62.27,59.36.6,35.9-22.31,60.29-60.26,63a398.94,398.94,0,0,1-47.79.49c-16.63-.8-21.9,2-12.62,19.42,21.65,40.7,43.87,81.41,61.19,124,13.4,33,32.13,46.41,67.84,41.81,17.89-2.31,23.19-3.79,13.65-21.48-16.85-31.28-31.76-63.59-48.44-95-6-11.19-2.67-14.65,7.93-18.7,62.22-23.77,89.79-73,78.19-138.07C1297.3,69.17,1245.11,27.84,1185.46,27.57Z" fill="#fff"/><path d="M1627.3,26.49c-44.83.85-89.69.32-134.54.32H1381c-45.87,0-45.46,0-43.08,47,.56,11,3.86,14.35,14.58,14.15,29.63-.56,59.32.69,88.92-.55,16.11-.67,20.51,4.44,20.36,20.41-.76,82.84-.35,165.69-.35,248.53,0,38,0,36.79,38.13,38.4,19.76.83,23.45-5.79,23.24-24.15-1-87.39-.14-174.81-.73-262.21-.1-15.26,3.24-22.19,20.1-21,19.66,1.44,39.5.34,59.26.34,44.28,0,43.57,0,43.76-43.69C1645.26,29.68,1641.1,26.23,1627.3,26.49Z" fill="#fff"/><polygon points="852.31 216.53 1016.92 312.49 1016.92 121.82 852.31 216.53" fill="#fff"/><polygon points="775.8 172.4 797.3 184.78 775.8 172.4 775.8 172.4" fill="#fff"/><polygon points="769.35 168.68 747.91 156.33 769.35 168.68 769.35 168.68" fill="#fff"/><polygon points="688.12 121.82 688.12 312.49 741.32 343.3 745.46 154.93 794.84 183.39 789.46 371.19 852.31 407.61 852.31 216.53 688.12 121.82" fill="#fff"/><rect x="772.57" y="166.81" height="7.45" transform="translate(239.11 754.8) rotate(-60.05)" fill="#fff"/><line x1="768.69" y1="168.3" x2="775.19" y2="172.05" fill="#fff"/><path d="M863.05,222.79l143.25,83.5a7.14,7.14,0,0,1,0,12.35L863,401.42a7.14,7.14,0,0,1-10.72-6.18V229A7.15,7.15,0,0,1,863.05,222.79Z" fill="#fff"/><polygon points="852.31 216.53 1016.92 312.49 852.31 407.61 852.31 216.53" fill="#e5e4e4"/><polygon points="745.46 154.93 794.84 183.39 789.46 371.24 741.32 343.35 745.46 154.93" fill="#fff" opacity="0"/><rect x="752.57" y="290.87" width="28.35" height="6.48" transform="translate(455.95 1054.25) rotate(-88.75)" fill="#fff"/><polygon points="762.57 336.55 762.16 355.42 768.56 359.13 769.05 336.69 762.57 336.55" fill="#fff"/><rect x="753.81" y="234.19" width="28.35" height="6.48" transform="translate(513.74 1000.01) rotate(-88.74)" fill="#fff"/><polygon points="772.21 195.02 772.74 170.66 766.29 166.94 765.73 194.88 772.21 195.02" fill="#fff"/><polygon points="852.31 216.53 795.64 183.87 961.18 89.89 1016.92 121.82 852.31 216.53" fill="#fff"/><polygon points="688.12 121.82 744.66 154.46 909.47 60.27 852.31 27.52 688.12 121.82" fill="#fff"/><polygon points="688.12 121.82 745.46 154.93 910.28 60.74 852.31 27.52 688.12 121.82" fill="#fff"/><polygon points="1016.92 121.82 852.31 216.53 794.84 183.39 960.36 89.43 1016.92 121.82" fill="#fff"/><polygon points="910.28 60.74 960.36 89.43 794.84 183.39 745.46 154.93 910.28 60.74" fill="#fff" opacity="0"/><polygon points="914.25 89.76 937.62 76.4 931.1 72.67 911.04 84.13 914.25 89.76" fill="#fff"/><polygon points="787.99 154.48 766.29 166.94 772.74 170.66 791.2 160.1 787.99 154.48" fill="#fff"/><rect x="861.56" y="104.81" width="28.35" height="6.48" transform="translate(61.85 448.89) rotate(-29.76)" fill="#fff"/><rect x="812.34" y="132.95" width="28.35" height="6.48" transform="translate(41.39 428.17) rotate(-29.76)" fill="#fff"/><path d="M309.85,287.69c.8,56.95-45.73,106.72-104.11,108.11-63,1.5-126.13.12-189.2.55-11.93.08-15.38-4.08-15.88-15.83-2-46.88-2.4-46.86,43.66-46.86,50.91,0,101.82.1,152.73,0,29.8-.08,49.8-17.64,50.29-43.69.53-28-19-47.06-49.25-47.39-28.87-.31-57.75.07-86.63-.1-62.32-.36-108.59-46-108.63-107.09C2.79,73.34,48,28,110.48,27.58c28.88-.17,57.75,0,86.63,0,18.62,0,37.25.24,55.87.22L242.93,0c26.21,22.85,68.49,44.42,102.57,57.06-34.08,12.64-76.36,34.21-102.57,57.07l9.24-25.56c-44.29,0-88.56-.13-132.84.07-33.9.14-54.31,16.58-55.55,44.06s20.18,47.67,54,48.92c28.08,1,56.22.15,84.34.26C262.69,182.11,309,227.61,309.85,287.69Z" fill="#fff"/><line x1="294.76" y1="57.06" x2="345.5" y2="57.06" fill="none"/><polygon points="687.53 121.78 687.53 312.45 851.72 407.57 851.72 216.5 687.53 121.78" fill="#fab63b"/><polygon points="775.21 172.36 796.7 184.75 775.21 172.36 775.21 172.36" fill="none"/><polygon points="768.75 168.64 747.32 156.29 768.75 168.64 768.75 168.64" fill="none"/><rect x="771.98" y="166.78" height="7.45" transform="translate(238.84 754.27) rotate(-60.05)" fill="#be1622"/><line x1="768.1" y1="168.27" x2="774.6" y2="172.01" fill="none"/><polygon points="744.87 154.9 794.25 183.35 788.86 371.2 740.72 343.31 744.87 154.9" fill="#f9f5f4"/><rect x="751.98" y="290.84" width="28.35" height="6.48" transform="translate(455.41 1053.62) rotate(-88.75)" fill="#fab63b"/><polygon points="761.98 336.52 761.57 355.39 767.97 359.1 768.46 336.66 761.98 336.52" fill="#fab63b"/><rect x="753.22" y="234.15" width="28.35" height="6.48" transform="translate(513.2 999.39) rotate(-88.74)" fill="#fab63b"/><polygon points="771.62 194.98 772.15 170.62 765.7 166.9 765.14 194.84 771.62 194.98" fill="#fab63b"/><polygon points="851.72 216.5 795.05 183.83 960.59 89.85 1016.33 121.78 851.72 216.5" fill="#ef7a23"/><polygon points="687.53 121.78 744.07 154.42 908.88 60.23 851.72 27.49 687.53 121.78" fill="#f49733"/><polygon points="687.53 121.78 744.87 154.9 909.69 60.7 851.72 27.49 687.53 121.78" fill="#f49733"/><polygon points="1016.33 121.78 851.72 216.5 794.25 183.35 959.76 89.39 1016.33 121.78" fill="#ef7a23"/><polygon points="909.69 60.7 959.76 89.39 794.25 183.35 744.87 154.9 909.69 60.7" fill="#fed38a"/><polygon points="913.66 89.72 937.03 76.37 930.51 72.63 910.45 84.1 913.66 89.72" fill="#f49733"/><polygon points="787.39 154.44 765.7 166.9 772.15 170.62 790.61 160.06 787.39 154.44" fill="#f49733"/><rect x="860.96" y="104.77" width="28.35" height="6.48" transform="translate(61.79 448.59) rotate(-29.76)" fill="#f49733"/><rect x="811.74" y="132.91" width="28.35" height="6.48" transform="translate(41.33 427.87) rotate(-29.76)" fill="#f49733"/></g></g></svg>